/* XPM */
static char *result[] = {
/* columns rows colors chars-per-pixel */
"64 64 35 1 ",
"  c #181E18",
". c #1D221B",
"X c #1C211F",
"o c #1C221F",
"O c #20241D",
"+ c #21241E",
"@ c #21251E",
"# c #1D2220",
"$ c #1E2321",
"% c #345606",
"& c #345607",
"* c #345707",
"= c #355707",
"- c #34902B",
"; c #34912B",
": c #34912C",
"> c #35912C",
", c #10A067",
"< c #10A167",
"1 c #11A168",
"2 c #80D05E",
"3 c #80D05F",
"4 c #80D15F",
"5 c #81D15F",
"6 c #3CB188",
"7 c #3DB188",
"8 c #3DB189",
"9 c #6FC8A0",
"0 c #6FC9A0",
"q c #6FC9A1",
"w c #70C9A1",
"e c #B8F888",
"r c #B9F888",
"t c #B9F889",
"y c #B9F989",
/* pixels */
"XXXXXXXXXXXXXXXXXXXXXXXXXXXXXXXXXXXXXXXXXXXXXXXXXXXXXXXXXXXXXXXX",
"XoXXXXoXXoXXXXXXXXXXXXoXXXXXoXXXXoXXXXXXXXXXXXXXXXXXXXXoXXXXoXXo",
"XXXoXXXXXoXXXXXXXXXXXXXXXoXXXXoXXXXXoXXXXXXXXXXXXXXXXXXXXoXXXXXo",
"XXoXoXXXXXXXXXXXXXXXXXXoXXXXXoXoXXXXXXXXXXXXXXXXXXXXoXXXoXoXXXXX",
"XXXXXXXXXXXXXXXXXXXXXXXX                ####XXXXXXXXXXXXXXXXXXXX",
"XXXXXXXXXXXXXXXXXXXXXXXX                ####XXXXXXXXXXXXXXXXXXXX",
"XXXXXXXXXXXXXXXXXXXXXXXX                ####XXXXXXXXXXXXXXXXXXXX",
"XXXXXXoXXXoXXXXXXXXXXXXX                ####XXXXXXXXXXXXXXXXoXXX",
"XXXXooXXXXXXoXoX        OOOO........OOO+        XXXX$$##XXooXXXX",
"XXXoXXXXXXXXXXXX        O@OO........OOOO        XXXo####XoXXXXXX",
"XXXXXXXXXXXXXXXX        OOOO........OOOO        XXXX####XXXXXXXX",
"XXXXXXXXXXXXXXXX        OOOO........OOOO        XXXX####XXXXXXXX",
"XXXXXXXXXXXX    OOOOOOOOOOOOOOOOOOOOOOOOOOOO....    XXXXXXXXXXXX",
"XoXXXXXXoXXo    OOOOOOOOOOOO@OOOOOO+OO+OOOO+....    XXXoXXXXXXoX",
"XXXXXXoXXXXX    OO@OO@OOOOOOOOOOO+OOOOOOOOOO....    XXXXXXXXoXXX",
"XXXXXXXXXXXX    OOOOOOOOOO@OOOOOOOOOOOOOOOOO....    XXXXXXXXXXXX",
"XXXXXXXX    ....OOOOOOOOOOOOOOOOOOOOOOOOOOOOOOOO....    XXXXXXXX",
"XXXXXXXX    ....OOOOOOOOOOOOOOOOOOOOOOOOOOOOOOOO....    XXXXXXXX",
"XXXXXXXX    ....OOOOOOOOOOOOOOOOOOOOOOOOOOOOOOOO....    XXXXXXXX",
"XXXXXXXX    ....OOOOOOOOOOOOOOOOOOO+OOOOO@OOOOOO....    XXXXXXoX",
"wwwwwwww::::44444444rrrreeee44444444ttttrrrr22224444----99999999",
"wwwwwwww::::44444444rrrreeee44444444ttttrrrr22224444----99999999",
"wwwwwwww::::44444444rrrreeee44444444ttttrrrr22224444----99999999",
"wwwwwwww::::44444444rrrreeee44444444ttttrrrr22224444----99999999",
"wwww----2222>>>>rrrrrrrrrrrrrrrrttttrrrrrrrrrrrr----4444::::9999",
"wwww----2222>>>>rrrrrrrrrrrrrrrrttttrrrrrrrrrrrr----4444::::9999",
"wwww----2222>>>>rrrrrrrrrrrrrrrrttttrrrrrrrrrrrr----4444::::9999",
"wwww----2222>>>>rrrrrrrrrrrrrrrrttttrrrrrrrrrrrr----4444::::9999",
"wwww4444----4444eeeeeeeeeeeerrrryyyyyyyyrrrrtttt4444----44447777",
"wwww4444----4444eeeeeeeeeeeerrrryyyyyyyyrrrrtttt4444----44447777",
"wwww4444----4444eeeeeeeeeeeerrrryyyyyyyyrrrrtttt4444----44447777",
"wwww4444----4444eeeeeeeeeeeerrrryyyyyyyyrrrrtttt4444----44447777",
"9999====5555;;;;4444yyyyyyyy44442222rrrryyyy4444----2222&&&&,,,,",
"9999====5555;;;;4444yyyyyyyy44442222rrrryyyy4444----2222&&&&,,,,",
"9999====5555;;;;4444yyyyyyyy44442222rrrryyyy4444----2222&&&&,,,,",
"9999====5555;;;;4444yyyyyyyy44442222rrrryyyy4444----2222&&&&,,,,",
"0000----4444----44444444444433334444222222223333::::4444----<<<<",
"0000----4444----44444444444433334444222222223333::::4444----<<<<",
"0000----4444----44444444444433334444222222223333::::4444----<<<<",
"0000----4444----44444444444433334444222222223333::::4444----<<<<",
"qqqq&&&&----44444444;;;;::::44445555--------44444444----&&&&<<<<",
"qqqq&&&&----44444444;;;;::::44445555--------44444444----&&&&<<<<",
"qqqq&&&&----44444444;;;;::::44445555--------44444444----&&&&<<<<",
"qqqq&&&&----44444444;;;;::::44445555--------44444444----&&&&<<<<",
"wwww&&&&--------222222224444----;;;;333322224444::::::::%%%%,,,,",
"wwww&&&&--------222222224444----;;;;333322224444::::::::%%%%,,,,",
"wwww&&&&--------222222224444----;;;;333322224444::::::::%%%%,,,,",
"wwww&&&&--------222222224444----;;;;333322224444::::::::%%%%,,,,",
"wwww8888****;;;;--------::::44444444----------------&&&&11116666",
"wwww8888****;;;;--------::::44444444----------------&&&&11116666",
"wwww8888****;;;;--------::::44444444----------------&&&&11116666",
"wwww8888****;;;;--------::::44444444----------------&&&&11116666",
"wwww9999<<<<----********----::::--------&&&&&&&&----<<<<8888wwww",
"wwww9999<<<<----********----::::--------&&&&&&&&----<<<<8888wwww",
"wwww9999<<<<----********----::::--------&&&&&&&&----<<<<8888wwww",
"wwww9999<<<<----********----::::--------&&&&&&&&----<<<<8888wwww",
"qqqq999999991111<<<<,,,,****&&&&****&&&&<<<<<<<<<<<<<<<<wwww9999",
"qqqq999999991111<<<<,,,,****&&&&****&&&&<<<<<<<<<<<<<<<<wwww9999",
"qqqq999999991111<<<<,,,,****&&&&****&&&&<<<<<<<<<<<<<<<<wwww9999",
"qqqq999999991111<<<<,,,,****&&&&****&&&&<<<<<<<<<<<<<<<<wwww9999",
"wwwwwwwwwwwwwwww99997777<<<<<<<<,,,,<<<<<<<<8888wwwwwwwwwwwwwwww",
"wwwwwwwwwwwwwwww99997777<<<<<<<<,,,,<<<<<<<<8888wwwwwwwwwwwwwwww",
"wwwwwwwwwwwwwwww99997777<<<<<<<<,,,,<<<<<<<<8888wwwwwwwwwwwwwwww",
"wwwwwwwwwwwwwwww99997777<<<<<<<<,,,,<<<<<<<<8888wwwwwwwwwwwwwwww"
};
